# xmcd
#
# Track frame offsets:
#	150
#	34738
#	51158
#	70418
#	81839
#	119162
#	139490
#	150029
#	172885
#	185688
#	226208
#	239593
#
# Disc length: 3345 seconds
#
# Revision: 1
# Processed by: cddbd v1.5.2PL0 Copyright (c) Steve Scherf et al.
# Submitted via: audiograbber 1.83.01
#
DISCID=a40d0f0c
DTITLE=Peter Ivers - Knight of the Blue Communion
DYEAR=1969
DGENRE=Avantgarde
TTITLE0=Cat Scratch Fever
TTITLE1=Water Curtain
TTITLE2=Dark Illumination
TTITLE3=Confession
TTITLE4=Travelling Lightly
TTITLE5=Showroom Model
TTITLE6=Tobacco
TTITLE7=Lord God Love
TTITLE8=Knight Of the Blue Communion
TTITLE9=Gentle Jesus
TTITLE10=Ain't That Peculiar
TTITLE11=Clarence O'Day
EXTD=2007 digipak CD reissue of this underground gem of an album, originally re
EXTD=leased in 1969. Many fans will know Peter Ivers as the writer of 'In Heave
EXTD=n', the creepy but beautiful song that he composed for David Lynch's Erase
EXTD=rhead. Ivers may not be a household name, but during his short life he mad
EXTD=e an impact on many fronts as a composer, musician, screenwriter, TV prese
EXTD=nter, etc. This album drew comparisons with Frank Zappa and Captain Beefhe
EXTD=art with it's innovative mix of Jazz, Rock, Blues and Avant-Garde madness.
EXTT0=
EXTT1=
EXTT2=
EXTT3=
EXTT4=
EXTT5=
EXTT6=
EXTT7=
EXTT8=
EXTT9=
EXTT10=
EXTT11=
PLAYORDER=
